<svg xmlns="http://www.w3.org/2000/svg"  width="1920" zoomAndPan="magnify" viewBox="0 0 1440 809.999993" height="1080" preserveAspectRatio="xMidYMid meet" version="1.2"><defs><filter x="0%" y="0%" width="100%" filterUnits="objectBoundingBox" id="7b1a4033a8" height="100%"><feColorMatrix values="0 0 0 0 1 0 0 0 0 1 0 0 0 0 1 0 0 0 1 0" type="matrix" in="SourceGraphic"/></filter><clipPath id="fe9ec01703"><rect x="0" width="1440" y="0" height="810"/></clipPath></defs><g id="cb6690f15f"><g mask="url(#75b077a45a)" transform="matrix(1,0,0,1,0,0.000000000000039746)"><g clip-path="url(#fe9ec01703)"><path style=" stroke:none;fill-rule:nonzero;fill:#2c5b52;fill-opacity:0.996;" d="M 162.910156 70.730469 L 241.847656 70.28125 L 320.890625 69.835938 C 326.859375 32.625 332.683594 -3.671875 338.359375 -39.050781 C 288.25 -38.722656 238.167969 -38.390625 188.121094 -38.0625 C 179.929688 -2.710938 171.523438 33.550781 162.910156 70.730469 "/><path style=" stroke:none;fill-rule:nonzero;fill:#2c5b52;fill-opacity:0.996;" d="M 479.28125 68.9375 L 558.632812 68.488281 L 638.082031 68.039062 C 638.714844 30.765625 639.335938 -5.589844 639.9375 -41.027344 C 589.582031 -40.695312 539.253906 -40.367188 488.960938 -40.035156 C 485.816406 -4.628906 482.589844 31.695312 479.28125 68.9375 "/><path style=" stroke:none;fill-rule:nonzero;fill:#2c5b52;fill-opacity:0.996;" d="M 797.296875 67.136719 L 877.058594 66.683594 L 956.925781 66.234375 C 952.167969 28.894531 947.527344 -7.519531 943.007812 -43.011719 C 892.402344 -42.679688 841.828125 -42.347656 791.289062 -42.015625 C 793.238281 -6.554688 795.242188 29.832031 797.296875 67.136719 "/><path style=" stroke:none;fill-rule:nonzero;fill:#2c5b52;fill-opacity:0.996;" d="M 1116.96875 65.324219 L 1197.144531 64.871094 L 1277.429688 64.417969 C 1267.226562 27.015625 1257.277344 -9.460938 1247.578125 -45.007812 C 1196.722656 -44.675781 1145.898438 -44.339844 1095.105469 -44.007812 C 1102.207031 -8.488281 1109.496094 27.957031 1116.96875 65.324219 "/><path style=" stroke:none;fill-rule:nonzero;fill:#2c5b52;fill-opacity:0.996;" d="M 972.371094 187.472656 L 1056.746094 187.082031 L 1141.238281 186.6875 C 1132.933594 145.152344 1124.84375 104.695312 1116.96875 65.324219 C 1063.585938 65.628906 1010.238281 65.929688 956.925781 66.234375 C 961.9375 105.566406 967.085938 145.980469 972.371094 187.472656 "/><path style=" stroke:none;fill-rule:nonzero;fill:#2c5b52;fill-opacity:0.996;" d="M 636.027344 189.046875 L 719.9375 188.65625 L 803.96875 188.265625 C 801.6875 146.8125 799.460938 106.433594 797.296875 67.136719 C 744.191406 67.4375 691.121094 67.738281 638.082031 68.039062 C 637.417969 107.300781 636.730469 147.636719 636.027344 189.046875 "/><path style=" stroke:none;fill-rule:nonzero;fill:#2c5b52;fill-opacity:0.996;" d="M 301.515625 190.613281 L 384.972656 190.222656 L 468.542969 189.835938 C 472.21875 148.460938 475.796875 108.164062 479.28125 68.9375 C 426.449219 69.238281 373.652344 69.535156 320.890625 69.835938 C 314.601562 109.027344 308.144531 149.285156 301.515625 190.613281 "/><path style=" stroke:none;fill-rule:nonzero;fill:#2c5b52;fill-opacity:0.996;" d="M -31.175781 192.167969 L 51.824219 191.78125 L 134.941406 191.394531 C 144.511719 150.105469 153.835938 109.882812 162.910156 70.730469 C 110.347656 71.027344 57.824219 71.324219 5.332031 71.625 C -6.515625 110.742188 -18.683594 150.921875 -31.175781 192.167969 "/><path style=" stroke:none;fill-rule:nonzero;fill:#2c5b52;fill-opacity:0.996;" d="M 103.75 325.972656 L 191.761719 325.664062 L 279.898438 325.347656 C 287.304688 279.175781 294.511719 234.261719 301.515625 190.613281 C 245.953125 190.871094 190.425781 191.132812 134.941406 191.394531 C 124.835938 234.996094 114.4375 279.859375 103.75 325.972656 "/><path style=" stroke:none;fill-rule:nonzero;fill:#2c5b52;fill-opacity:0.996;" d="M 456.558594 324.710938 L 545.082031 324.398438 L 633.730469 324.082031 C 634.515625 277.804688 635.28125 232.792969 636.027344 189.046875 C 580.160156 189.308594 524.332031 189.570312 468.542969 189.835938 C 464.660156 233.53125 460.664062 278.488281 456.558594 324.710938 "/><path style=" stroke:none;fill-rule:nonzero;fill:#2c5b52;fill-opacity:0.996;" d="M 811.414062 323.441406 L 900.449219 323.125 L 989.613281 322.808594 C 983.703125 276.425781 977.957031 231.3125 972.371094 187.472656 C 916.199219 187.738281 860.066406 188 803.96875 188.265625 C 806.378906 232.054688 808.863281 277.113281 811.414062 323.441406 "/><path style=" stroke:none;fill-rule:nonzero;fill:#2c5b52;fill-opacity:0.996;" d="M 1168.328125 322.164062 L 1347.566406 321.53125 L 1310.566406 185.890625 L 1141.238281 186.6875 L 1168.328125 322.164062 "/><path style=" stroke:none;fill-rule:nonzero;fill:#2c5b52;fill-opacity:0.996;" d="M 1008.980469 474.835938 L 1103.804688 474.617188 L 1198.773438 474.394531 C 1188.320312 422.132812 1178.171875 371.386719 1168.328125 322.164062 C 1108.714844 322.382812 1049.140625 322.597656 989.613281 322.808594 C 995.875 371.96875 1002.332031 422.644531 1008.980469 474.835938 "/><path style=" stroke:none;fill-rule:nonzero;fill:#2c5b52;fill-opacity:0.996;" d="M 631.152344 475.71875 L 725.390625 475.5 L 819.777344 475.28125 C 816.90625 423.15625 814.117188 372.542969 811.414062 323.441406 C 752.140625 323.65625 692.914062 323.871094 633.730469 324.082031 C 632.898438 373.121094 632.039062 423.667969 631.152344 475.71875 "/><path style=" stroke:none;fill-rule:nonzero;fill:#2c5b52;fill-opacity:0.996;" d="M 255.636719 476.597656 L 349.300781 476.382812 L 443.105469 476.164062 C 447.722656 424.175781 452.207031 373.691406 456.558594 324.710938 C 397.632812 324.925781 338.742188 325.136719 279.898438 325.347656 C 272.050781 374.265625 263.964844 424.683594 255.636719 476.597656 "/><path style=" stroke:none;fill-rule:nonzero;fill:#2c5b52;fill-opacity:0.996;" d="M -117.589844 477.472656 L -24.496094 477.257812 L 68.738281 477.042969 C 80.753906 425.191406 92.425781 374.835938 103.75 325.976562 C 45.160156 326.183594 -13.390625 326.394531 -71.894531 326.605469 C -86.675781 375.40625 -101.90625 425.695312 -117.589844 477.472656 "/><path style=" stroke:none;fill-rule:nonzero;fill:#2c5b52;fill-opacity:0.996;" d="M 29.160156 647.800781 L 128.601562 647.710938 L 228.199219 647.617188 C 237.636719 588.808594 246.78125 531.800781 255.636719 476.597656 C 193.289062 476.746094 130.988281 476.894531 68.738281 477.042969 C 55.964844 532.164062 42.769531 589.082031 29.160156 647.800781 "/><path style=" stroke:none;fill-rule:nonzero;fill:#2c5b52;fill-opacity:0.996;" d="M 427.890625 647.425781 L 527.980469 647.332031 L 628.234375 647.242188 C 629.238281 588.253906 630.210938 531.078125 631.152344 475.71875 C 568.421875 475.867188 505.742188 476.015625 443.105469 476.164062 C 438.195312 531.441406 433.125 588.53125 427.890625 647.425781 "/><path style=" stroke:none;fill-rule:nonzero;fill:#2c5b52;fill-opacity:0.996;" d="M 829.238281 647.046875 L 929.984375 646.953125 L 1030.894531 646.859375 C 1023.359375 587.695312 1016.054688 530.351562 1008.980469 474.835938 C 945.863281 474.984375 882.796875 475.132812 819.777344 475.28125 C 822.828125 530.71875 825.984375 587.972656 829.238281 647.046875 "/><path style=" stroke:none;fill-rule:nonzero;fill:#2c5b52;fill-opacity:0.996;" d="M 1233.21875 646.664062 L 1334.628906 646.570312 L 1436.210938 646.476562 C 1420.019531 587.128906 1404.332031 529.621094 1389.144531 473.945312 C 1325.636719 474.09375 1262.179688 474.246094 1198.773438 474.394531 C 1209.886719 529.988281 1221.371094 587.410156 1233.21875 646.664062 "/><path style=" stroke:none;fill-rule:nonzero;fill:#2c5b52;fill-opacity:0.996;" d="M -228.070312 842.253906 L -122.097656 842.324219 L -15.941406 842.394531 C -0.398438 775.34375 14.636719 710.480469 29.160156 647.800781 C -37.023438 647.863281 -103.15625 647.929688 -169.234375 647.992188 C -188.1875 710.566406 -207.796875 775.320312 -228.070312 842.253906 "/><path style=" stroke:none;fill-rule:nonzero;fill:#2c5b52;fill-opacity:0.996;" d="M 196.933594 842.527344 L 303.644531 842.597656 L 410.546875 842.671875 C 416.523438 775.386719 422.304688 710.304688 427.890625 647.421875 C 361.273438 647.488281 294.710938 647.554688 228.199219 647.617188 C 218.128906 710.394531 207.707031 775.363281 196.933594 842.527344 "/><path style=" stroke:none;fill-rule:nonzero;fill:#2c5b52;fill-opacity:0.996;" d="M 624.910156 842.804688 L 732.371094 842.878906 L 840.023438 842.953125 C 836.308594 775.433594 832.710938 710.132812 829.238281 647.046875 C 762.179688 647.109375 695.179688 647.175781 628.234375 647.242188 C 627.164062 710.21875 626.054688 775.410156 624.910156 842.804688 "/><path style=" stroke:none;fill-rule:nonzero;fill:#2c5b52;fill-opacity:0.996;" d="M 1055.894531 843.085938 L 1164.113281 843.160156 L 1272.527344 843.234375 C 1258.976562 775.476562 1245.875 709.957031 1233.21875 646.664062 C 1165.722656 646.730469 1098.28125 646.792969 1030.894531 646.859375 C 1038.945312 710.046875 1047.277344 775.453125 1055.894531 843.085938 "/><path style=" stroke:none;fill-rule:nonzero;fill:#fefefe;fill-opacity:0.996;" d="M -71.894531 326.601562 L 15.863281 326.292969 L 103.75 325.980469 C 114.4375 279.859375 124.835938 234.996094 134.941406 191.390625 C 79.53125 191.652344 24.15625 191.910156 -31.179688 192.171875 C -44.371094 235.730469 -57.941406 280.539062 -71.894531 326.601562 "/><path style=" stroke:none;fill-rule:nonzero;fill:#fefefe;fill-opacity:0.996;" d="M 5.332031 71.621094 L 84.070312 71.175781 L 162.90625 70.730469 C 171.523438 33.550781 179.929688 -2.714844 188.125 -38.066406 C 138.136719 -37.738281 88.179688 -37.410156 38.253906 -37.082031 C 27.558594 -1.757812 16.582031 34.476562 5.332031 71.621094 "/><path style=" stroke:none;fill-rule:nonzero;fill:#fefefe;fill-opacity:0.996;" d="M 320.890625 69.832031 L 400.035156 69.386719 L 479.28125 68.941406 C 482.589844 31.695312 485.816406 -4.628906 488.960938 -40.039062 C 438.730469 -39.707031 388.527344 -39.378906 338.359375 -39.046875 C 332.683594 -3.667969 326.859375 32.625 320.890625 69.832031 "/><path style=" stroke:none;fill-rule:nonzero;fill:#fefefe;fill-opacity:0.996;" d="M 134.941406 191.390625 L 218.167969 191.003906 L 301.515625 190.617188 C 308.144531 149.285156 314.605469 109.023438 320.890625 69.832031 C 268.195312 70.132812 215.535156 70.433594 162.90625 70.734375 C 153.832031 109.886719 144.511719 150.105469 134.941406 191.390625 "/><path style=" stroke:none;fill-rule:nonzero;fill:#fefefe;fill-opacity:0.996;" d="M 956.925781 66.230469 L 1036.894531 65.78125 L 1116.96875 65.328125 C 1109.496094 27.957031 1102.207031 -8.488281 1095.105469 -44.007812 C 1044.375 -43.675781 993.675781 -43.34375 943.007812 -43.007812 C 947.527344 -7.519531 952.167969 28.894531 956.925781 66.230469 "/><path style=" stroke:none;fill-rule:nonzero;fill:#fefefe;fill-opacity:0.996;" d="M 638.085938 68.039062 L 717.636719 67.585938 L 797.296875 67.140625 C 795.242188 29.832031 793.238281 -6.554688 791.285156 -42.019531 C 740.804688 -41.6875 690.355469 -41.355469 639.9375 -41.023438 C 639.335938 -5.589844 638.714844 30.761719 638.085938 68.039062 "/><path style=" stroke:none;fill-rule:nonzero;fill:#fefefe;fill-opacity:0.996;" d="M 468.542969 189.832031 L 552.226562 189.441406 L 636.027344 189.050781 C 636.730469 147.636719 637.417969 107.300781 638.085938 68.039062 C 585.117188 68.339844 532.179688 68.640625 479.28125 68.941406 C 475.796875 108.164062 472.21875 148.460938 468.542969 189.832031 "/><path style=" stroke:none;fill-rule:nonzero;fill:#fefefe;fill-opacity:0.996;" d="M 279.898438 325.34375 L 368.167969 325.03125 L 456.558594 324.71875 C 460.667969 278.492188 464.660156 233.527344 468.542969 189.832031 C 412.828125 190.09375 357.152344 190.355469 301.511719 190.617188 C 294.511719 234.265625 287.304688 279.175781 279.898438 325.34375 "/><path style=" stroke:none;fill-rule:nonzero;fill:#fefefe;fill-opacity:0.996;" d="M 68.738281 477.035156 L 162.117188 476.820312 L 255.636719 476.605469 C 263.964844 424.683594 272.050781 374.265625 279.898438 325.34375 C 221.140625 325.554688 162.421875 325.769531 103.75 325.980469 C 92.425781 374.835938 80.753906 425.1875 68.738281 477.035156 "/><path style=" stroke:none;fill-rule:nonzero;fill:#fefefe;fill-opacity:0.996;" d="M -169.230469 647.988281 L -70.117188 647.898438 L 29.160156 647.804688 C 42.769531 589.085938 55.964844 532.164062 68.738281 477.035156 C 6.582031 477.183594 -55.527344 477.332031 -117.589844 477.476562 C -134.261719 532.523438 -151.476562 589.359375 -169.230469 647.988281 "/><path style=" stroke:none;fill-rule:nonzero;fill:#fefefe;fill-opacity:0.996;" d="M -15.9375 842.390625 L 90.402344 842.460938 L 196.929688 842.535156 C 207.707031 775.367188 218.128906 710.394531 228.203125 647.613281 C 161.800781 647.675781 95.453125 647.742188 29.160156 647.804688 C 14.632812 710.480469 -0.398438 775.34375 -15.9375 842.390625 "/><path style=" stroke:none;fill-rule:nonzero;fill:#fefefe;fill-opacity:0.996;" d="M 228.203125 647.613281 L 327.964844 647.519531 L 427.890625 647.429688 C 433.125 588.53125 438.195312 531.441406 443.105469 476.160156 C 380.566406 476.308594 318.078125 476.457031 255.636719 476.605469 C 246.78125 531.804688 237.636719 588.808594 228.203125 647.613281 "/><path style=" stroke:none;fill-rule:nonzero;fill:#fefefe;fill-opacity:0.996;" d="M 443.105469 476.160156 L 537.058594 475.941406 L 631.152344 475.726562 C 632.039062 423.667969 632.898438 373.121094 633.730469 324.078125 C 574.628906 324.292969 515.574219 324.503906 456.558594 324.71875 C 452.207031 373.695312 447.722656 424.175781 443.105469 476.160156 "/><path style=" stroke:none;fill-rule:nonzero;fill:#fefefe;fill-opacity:0.996;" d="M 633.730469 324.078125 L 722.507812 323.765625 L 811.414062 323.449219 C 808.863281 277.117188 806.378906 232.054688 803.96875 188.261719 C 747.949219 188.523438 691.96875 188.789062 636.027344 189.050781 C 635.285156 232.792969 634.519531 277.804688 633.730469 324.078125 "/><path style=" stroke:none;fill-rule:nonzero;fill:#fefefe;fill-opacity:0.996;" d="M 803.96875 188.261719 L 888.113281 187.871094 L 972.371094 187.476562 C 967.085938 145.980469 961.9375 105.566406 956.925781 66.230469 C 903.679688 66.535156 850.472656 66.835938 797.296875 67.140625 C 799.460938 106.4375 801.6875 146.808594 803.96875 188.261719 "/><path style=" stroke:none;fill-rule:nonzero;fill:#fefefe;fill-opacity:0.996;" d="M 1277.429688 64.417969 L 1197.144531 64.871094 L 1116.96875 65.328125 C 1124.84375 104.699219 1132.933594 145.148438 1141.238281 186.683594 C 1197.640625 186.421875 1254.085938 186.160156 1310.566406 185.894531 C 1299.226562 144.316406 1288.179688 103.824219 1277.429688 64.417969 "/><path style=" stroke:none;fill-rule:nonzero;fill:#fefefe;fill-opacity:0.996;" d="M 1141.238281 186.683594 L 1056.746094 187.082031 L 972.371094 187.476562 C 977.957031 231.3125 983.703125 276.421875 989.613281 322.804688 C 1049.140625 322.59375 1108.714844 322.382812 1168.332031 322.171875 C 1159.042969 275.730469 1150.011719 230.570312 1141.238281 186.683594 "/><path style=" stroke:none;fill-rule:nonzero;fill:#fefefe;fill-opacity:0.996;" d="M 989.613281 322.804688 L 900.449219 323.125 L 811.414062 323.449219 C 814.117188 372.546875 816.90625 423.15625 819.777344 475.277344 C 882.796875 475.132812 945.863281 474.984375 1008.984375 474.839844 C 1002.332031 422.644531 995.875 371.96875 989.613281 322.804688 "/><path style=" stroke:none;fill-rule:nonzero;fill:#fefefe;fill-opacity:0.996;" d="M 819.777344 475.277344 L 725.390625 475.5 L 631.152344 475.726562 C 630.210938 531.082031 629.238281 588.25 628.238281 647.234375 C 695.179688 647.175781 762.179688 647.113281 829.238281 647.050781 C 825.984375 587.972656 822.828125 530.714844 819.777344 475.277344 "/><path style=" stroke:none;fill-rule:nonzero;fill:#fefefe;fill-opacity:0.996;" d="M 628.238281 647.234375 L 527.980469 647.332031 L 427.890625 647.429688 C 422.304688 710.308594 416.523438 775.386719 410.546875 842.667969 C 481.9375 842.714844 553.394531 842.761719 624.910156 842.8125 C 626.054688 775.410156 627.164062 710.21875 628.238281 647.234375 "/><path style=" stroke:none;fill-rule:nonzero;fill:#fefefe;fill-opacity:0.996;" d="M 840.027344 842.945312 L 947.863281 843.015625 L 1055.894531 843.09375 C 1047.277344 775.457031 1038.945312 710.042969 1030.894531 646.855469 C 963.621094 646.921875 896.402344 646.984375 829.238281 647.050781 C 832.710938 710.132812 836.308594 775.429688 840.027344 842.945312 "/><path style=" stroke:none;fill-rule:nonzero;fill:#fefefe;fill-opacity:0.996;" d="M 1030.894531 646.855469 L 1131.972656 646.761719 L 1233.21875 646.671875 C 1221.371094 587.414062 1209.886719 529.988281 1198.769531 474.390625 C 1135.460938 474.542969 1072.195312 474.691406 1008.980469 474.839844 C 1016.054688 530.355469 1023.359375 587.691406 1030.894531 646.855469 "/><path style=" stroke:none;fill-rule:nonzero;fill:#fefefe;fill-opacity:0.996;" d="M 1198.769531 474.390625 L 1293.882812 474.171875 L 1389.148438 473.949219 C 1374.871094 421.617188 1361.007812 370.808594 1347.5625 321.523438 C 1287.777344 321.738281 1228.03125 321.957031 1168.332031 322.171875 C 1178.171875 371.390625 1188.320312 422.128906 1198.769531 474.390625 "/><path style=" stroke:none;fill-rule:nonzero;fill:#fefefe;fill-opacity:0.996;" d="M 1436.207031 646.472656 L 1334.628906 646.570312 L 1233.21875 646.671875 C 1245.875 709.957031 1258.976562 775.476562 1272.527344 843.226562 C 1344.925781 843.277344 1417.390625 843.324219 1489.921875 843.375 C 1471.40625 775.503906 1453.5 709.867188 1436.207031 646.472656 "/><path style=" stroke:none;fill-rule:nonzero;fill:#2c5b52;fill-opacity:0.996;" d="M 1310.566406 185.890625 L 1395.40625 185.496094 L 1480.363281 185.101562 C 1465.96875 143.480469 1451.949219 102.949219 1438.308594 63.503906 C 1384.644531 63.808594 1331.019531 64.113281 1277.429688 64.417969 C 1288.179688 103.824219 1299.226562 144.316406 1310.566406 185.890625 "/><path style=" stroke:none;fill-rule:nonzero;fill:#2c5b52;fill-opacity:0.996;" d="M 1389.144531 473.945312 L 1484.554688 473.722656 L 1580.109375 473.503906 C 1561.984375 421.097656 1544.390625 370.226562 1527.324219 320.882812 C 1467.359375 321.097656 1407.441406 321.3125 1347.566406 321.53125 C 1361.011719 370.808594 1374.871094 421.613281 1389.144531 473.945312 "/><path style=" stroke:none;fill-rule:nonzero;fill:#2c5b52;fill-opacity:0.996;" d="M 1489.917969 843.367188 L 1598.902344 843.441406 L 1708.082031 843.515625 C 1684.566406 775.523438 1661.828125 709.78125 1639.867188 646.28125 C 1571.925781 646.347656 1504.039062 646.414062 1436.207031 646.476562 C 1453.5 709.871094 1471.40625 775.5 1489.917969 843.367188 "/><path style=" stroke:none;fill-rule:nonzero;fill:#fefefe;fill-opacity:0.996;" d="M 1436.207031 646.472656 L 1537.953125 646.378906 L 1639.867188 646.285156 C 1619.3125 586.847656 1599.390625 529.25 1580.105469 473.496094 C 1516.40625 473.648438 1452.75 473.800781 1389.148438 473.949219 C 1404.332031 529.621094 1420.019531 587.128906 1436.207031 646.472656 "/><path style=" stroke:none;fill-rule:nonzero;fill:#fefefe;fill-opacity:0.996;" d="M 1347.5625 321.523438 L 1437.378906 321.207031 L 1527.324219 320.886719 C 1511.226562 274.339844 1495.574219 229.078125 1480.363281 185.097656 C 1423.726562 185.363281 1367.128906 185.628906 1310.566406 185.894531 C 1322.550781 229.824219 1334.882812 275.035156 1347.5625 321.523438 "/><path style=" stroke:none;fill-rule:nonzero;fill:#fefefe;fill-opacity:0.996;" d="M 1277.429688 64.417969 L 1357.816406 63.960938 L 1438.308594 63.507812 C 1425.359375 26.074219 1412.734375 -10.433594 1400.429688 -46.011719 C 1349.449219 -45.675781 1298.5 -45.339844 1247.582031 -45.003906 C 1257.277344 -9.460938 1267.226562 27.015625 1277.429688 64.417969 "/></g><mask id="75b077a45a"><g filter="url(#7b1a4033a8)"><rect x="0" width="1440" y="0" height="809.999993" style="fill:#000000;fill-opacity:0.44;stroke:none;"/></g></mask></g></g></svg>