<svg xmlns="http://www.w3.org/2000/svg" width="500" zoomAndPan="magnify" viewBox="0 0 375 374.999991" height="500" preserveAspectRatio="xMidYMid meet" version="1.2"><defs><clipPath id="1d18bf2540"><path d="M 24.78125 24.78125 L 350.21875 24.78125 L 350.21875 350.21875 L 24.78125 350.21875 Z M 24.78125 24.78125 "/></clipPath><clipPath id="b175e72d64"><path d="M 187.5 350.21875 C 144.054688 350.21875 103.148438 333.3125 72.449219 302.550781 C 41.6875 271.851562 24.78125 230.945312 24.78125 187.5 C 24.78125 144.054688 41.6875 103.148438 72.449219 72.449219 C 103.148438 41.6875 144.054688 24.78125 187.5 24.78125 C 230.945312 24.78125 271.851562 41.6875 302.550781 72.449219 C 333.3125 103.214844 350.21875 144.054688 350.21875 187.5 C 350.21875 230.945312 333.3125 271.851562 302.550781 302.550781 C 271.851562 333.3125 230.945312 350.21875 187.5 350.21875 Z M 187.5 34.535156 C 146.65625 34.535156 108.222656 50.46875 79.34375 79.34375 C 50.46875 108.222656 34.535156 146.65625 34.535156 187.5 C 34.535156 228.34375 50.46875 266.777344 79.34375 295.65625 C 108.222656 324.53125 146.65625 340.464844 187.5 340.464844 C 228.34375 340.464844 266.777344 324.53125 295.65625 295.65625 C 324.53125 266.777344 340.464844 228.34375 340.464844 187.5 C 340.464844 146.65625 324.53125 108.222656 295.65625 79.34375 C 266.777344 50.46875 228.34375 34.535156 187.5 34.535156 Z M 187.5 34.535156 "/></clipPath><clipPath id="278989d1f1"><path d="M 0.78125 0.78125 L 326.21875 0.78125 L 326.21875 326.21875 L 0.78125 326.21875 Z M 0.78125 0.78125 "/></clipPath><clipPath id="51a5567cd2"><path d="M 163.5 326.21875 C 120.054688 326.21875 79.148438 309.3125 48.449219 278.550781 C 17.6875 247.851562 0.78125 206.945312 0.78125 163.5 C 0.78125 120.054688 17.6875 79.148438 48.449219 48.449219 C 79.148438 17.6875 120.054688 0.78125 163.5 0.78125 C 206.945312 0.78125 247.851562 17.6875 278.550781 48.449219 C 309.3125 79.214844 326.21875 120.054688 326.21875 163.5 C 326.21875 206.945312 309.3125 247.851562 278.550781 278.550781 C 247.851562 309.3125 206.945312 326.21875 163.5 326.21875 Z M 163.5 10.535156 C 122.65625 10.535156 84.222656 26.46875 55.34375 55.34375 C 26.46875 84.222656 10.535156 122.65625 10.535156 163.5 C 10.535156 204.34375 26.46875 242.777344 55.34375 271.65625 C 84.222656 300.53125 122.65625 316.464844 163.5 316.464844 C 204.34375 316.464844 242.777344 300.53125 271.65625 271.65625 C 300.53125 242.777344 316.464844 204.34375 316.464844 163.5 C 316.464844 122.65625 300.53125 84.222656 271.65625 55.34375 C 242.777344 26.46875 204.34375 10.535156 163.5 10.535156 Z M 163.5 10.535156 "/></clipPath><clipPath id="5170c8f7e6"><rect x="0" width="327" y="0" height="327"/></clipPath><clipPath id="12f4f6ba44"><path d="M 129 290 L 241.449219 290 L 241.449219 302.757812 L 129 302.757812 Z M 129 290 "/></clipPath><clipPath id="2840eb69bf"><path d="M 129 283 L 241.449219 283 L 241.449219 287 L 129 287 Z M 129 283 "/></clipPath><clipPath id="c19a78ad55"><path d="M 129 252 L 241.449219 252 L 241.449219 280 L 129 280 Z M 129 252 "/></clipPath><clipPath id="e358482dcd"><path d="M 161 47.007812 L 211 47.007812 L 211 89 L 161 89 Z M 161 47.007812 "/></clipPath><clipPath id="023eed300d"><path d="M 53.519531 176.050781 L 316.769531 176.050781 L 316.769531 227.800781 L 53.519531 227.800781 Z M 53.519531 176.050781 "/></clipPath></defs><g id="e01ea5452c"><g clip-rule="nonzero" clip-path="url(#1d18bf2540)"><g clip-rule="nonzero" clip-path="url(#b175e72d64)"><g transform="matrix(1,0,0,1,24,24)"><g clip-path="url(#5170c8f7e6)"><g clip-rule="nonzero" clip-path="url(#278989d1f1)"><g clip-rule="nonzero" clip-path="url(#51a5567cd2)"><path style=" stroke:none;fill-rule:nonzero;fill:#ffffff;fill-opacity:1;" d="M 0.78125 0.78125 L 326.21875 0.78125 L 326.21875 326.21875 L 0.78125 326.21875 Z M 0.78125 0.78125 "/></g></g></g></g></g></g><g clip-rule="nonzero" clip-path="url(#12f4f6ba44)"><path style=" stroke:none;fill-rule:nonzero;fill:#ffffff;fill-opacity:1;" d="M 241.765625 302.199219 L 129.050781 302.199219 L 129.050781 290.089844 L 241.765625 290.089844 L 241.765625 302.199219 "/></g><g clip-rule="nonzero" clip-path="url(#2840eb69bf)"><path style=" stroke:none;fill-rule:nonzero;fill:#ffffff;fill-opacity:1;" d="M 241.765625 286.910156 L 129.050781 286.910156 L 129.050781 283.085938 L 241.765625 283.085938 L 241.765625 286.910156 "/></g><g clip-rule="nonzero" clip-path="url(#c19a78ad55)"><path style=" stroke:none;fill-rule:nonzero;fill:#ffffff;fill-opacity:1;" d="M 223.28125 266.953125 C 219.40625 266.257812 216.464844 263.65625 215.90625 260.4375 C 215.351562 257.21875 217.289062 254.058594 220.777344 252.5 L 150.042969 252.5 C 153.53125 254.058594 155.46875 257.21875 154.910156 260.4375 C 154.355469 263.65625 151.414062 266.257812 147.539062 266.953125 C 131.554688 269.824219 129.050781 279.898438 129.050781 279.898438 L 241.765625 279.898438 C 241.765625 279.898438 239.265625 269.824219 223.28125 266.953125 "/></g><path style=" stroke:none;fill-rule:nonzero;fill:#ffffff;fill-opacity:1;" d="M 149.765625 248.1875 C 148.144531 248.1875 146.835938 249.261719 146.835938 250.589844 L 223.984375 250.589844 C 223.984375 249.261719 222.683594 248.1875 221.0625 248.1875 L 149.765625 248.1875 "/><path style=" stroke:none;fill-rule:nonzero;fill:#ffffff;fill-opacity:1;" d="M 228.238281 244.0625 C 228.238281 243.101562 227.28125 242.316406 226.109375 242.316406 L 144.707031 242.316406 C 143.535156 242.316406 142.582031 243.101562 142.582031 244.0625 L 142.582031 245.019531 C 142.582031 245.972656 143.535156 246.757812 144.707031 246.757812 L 226.109375 246.757812 C 227.28125 246.757812 228.238281 245.972656 228.238281 245.019531 L 228.238281 244.0625 "/><path style=" stroke:none;fill-rule:nonzero;fill:#ffffff;fill-opacity:1;" d="M 211.449219 236.890625 C 196.296875 203.433594 199.40625 166.160156 199.40625 166.160156 C 206.402344 213.316406 218.453125 236.890625 218.453125 236.890625 Z M 206.789062 163.625 L 164.03125 163.625 C 164.03125 200.261719 146.835938 238.480469 146.835938 238.480469 C 146.835938 239.8125 148.144531 240.886719 149.765625 240.886719 L 221.054688 240.886719 C 222.671875 240.886719 223.984375 239.8125 223.984375 238.480469 C 223.984375 238.480469 206.789062 200.261719 206.789062 163.625 "/><path style=" stroke:none;fill-rule:nonzero;fill:#ffffff;fill-opacity:1;" d="M 212.054688 157.554688 L 160.503906 157.554688 C 160.503906 159.851562 162.769531 161.707031 165.570312 161.707031 L 206.988281 161.707031 C 209.789062 161.707031 212.054688 159.851562 212.054688 157.554688 "/><path style=" stroke:none;fill-rule:nonzero;fill:#ffffff;fill-opacity:1;" d="M 218.957031 153.222656 C 218.957031 152.28125 217.515625 151.515625 215.738281 151.515625 L 156.6875 151.515625 C 154.910156 151.515625 153.46875 152.28125 153.46875 153.222656 L 153.46875 153.96875 C 153.46875 154.902344 154.910156 155.667969 156.6875 155.667969 L 215.738281 155.667969 C 217.515625 155.667969 218.957031 154.902344 218.957031 153.96875 L 218.957031 153.222656 "/><path style=" stroke:none;fill-rule:nonzero;fill:#ffffff;fill-opacity:1;" d="M 218.957031 153.222656 C 218.957031 152.28125 217.515625 151.515625 215.738281 151.515625 L 156.6875 151.515625 C 154.910156 151.515625 153.46875 152.28125 153.46875 153.222656 L 153.46875 153.96875 C 153.46875 154.902344 154.910156 155.667969 156.6875 155.667969 L 215.738281 155.667969 C 217.515625 155.667969 218.957031 154.902344 218.957031 153.96875 L 218.957031 153.222656 "/><path style=" stroke:none;fill-rule:nonzero;fill:#ffffff;fill-opacity:1;" d="M 215.539062 146.804688 C 215.539062 145.863281 214.25 145.097656 212.667969 145.097656 L 159.898438 145.097656 C 158.308594 145.097656 157.027344 145.863281 157.027344 146.804688 L 157.027344 147.542969 C 157.027344 148.484375 158.308594 149.25 159.898438 149.25 L 212.667969 149.25 C 214.25 149.25 215.539062 148.484375 215.539062 147.542969 L 215.539062 146.804688 "/><path style=" stroke:none;fill-rule:nonzero;fill:#ffffff;fill-opacity:1;" d="M 212.054688 143.191406 C 212.054688 140.894531 209.789062 139.039062 206.988281 139.039062 L 165.570312 139.039062 C 162.777344 139.039062 160.515625 140.894531 160.515625 143.191406 L 212.054688 143.191406 "/><path style=" stroke:none;fill-rule:nonzero;fill:#ffffff;fill-opacity:1;" d="M 168.957031 133.464844 C 173.765625 120.679688 164.148438 103.839844 164.148438 103.839844 C 178.136719 118.175781 168.957031 133.464844 168.957031 133.464844 Z M 214.726562 104.984375 C 215.242188 104.238281 215.539062 103.375 215.539062 102.449219 C 215.539062 99.589844 212.710938 97.265625 209.222656 97.265625 L 163.34375 97.265625 C 159.847656 97.265625 157.027344 99.589844 157.027344 102.449219 C 157.027344 103.363281 157.316406 104.21875 157.820312 104.960938 C 161.625 110.527344 163.953125 116.746094 164.539062 123.101562 C 165.292969 131.238281 164.386719 137.121094 164.386719 137.121094 L 208.039062 137.121094 C 208.039062 137.121094 207.164062 131.457031 207.851562 123.550781 C 208.40625 116.984375 210.753906 110.703125 214.726562 104.984375 "/><path style=" stroke:none;fill-rule:nonzero;fill:#ffffff;fill-opacity:1;" d="M 200.707031 93.488281 C 200.707031 94.851562 199.378906 95.941406 197.726562 95.941406 L 174.839844 95.941406 C 173.191406 95.941406 171.847656 94.851562 171.847656 93.488281 C 171.847656 92.136719 173.191406 91.042969 174.839844 91.042969 L 197.726562 91.042969 C 199.378906 91.042969 200.707031 92.136719 200.707031 93.488281 "/><g clip-rule="nonzero" clip-path="url(#e358482dcd)"><path style=" stroke:none;fill-rule:nonzero;fill:#ffffff;fill-opacity:1;" d="M 210.214844 59.890625 C 209.796875 59.710938 209.300781 59.742188 208.90625 59.960938 C 205.734375 61.777344 198.960938 64.9375 190.117188 64.9375 L 190.117188 64.917969 L 190.1875 64.917969 C 190.1875 57.664062 194.042969 52.113281 196.269531 49.507812 C 196.527344 49.191406 196.566406 48.773438 196.347656 48.4375 C 196.128906 48.097656 195.703125 47.878906 195.226562 47.878906 L 177.363281 47.878906 C 176.894531 47.878906 176.46875 48.097656 176.25 48.4375 C 176.03125 48.773438 176.0625 49.191406 176.328125 49.507812 C 178.554688 52.113281 182.410156 57.664062 182.410156 64.917969 C 173.585938 64.898438 166.824219 61.757812 163.652344 59.929688 C 163.265625 59.722656 162.757812 59.691406 162.34375 59.871094 C 161.933594 60.039062 161.667969 60.398438 161.667969 60.785156 L 161.667969 75.429688 C 161.667969 75.804688 161.933594 76.164062 162.34375 76.34375 C 162.757812 76.519531 163.265625 76.492188 163.652344 76.273438 C 166.832031 74.453125 173.609375 71.296875 182.449219 71.296875 L 182.449219 71.34375 L 182.410156 71.34375 C 182.410156 78.585938 178.554688 84.140625 176.328125 86.742188 C 176.0625 87.0625 176.03125 87.476562 176.25 87.816406 C 176.46875 88.164062 176.894531 88.371094 177.363281 88.371094 L 195.226562 88.371094 C 195.703125 88.371094 196.128906 88.164062 196.347656 87.816406 C 196.566406 87.476562 196.527344 87.0625 196.269531 86.742188 C 194.042969 84.140625 190.1875 78.585938 190.1875 71.34375 L 190.117188 71.34375 L 190.117188 71.316406 C 198.960938 71.316406 205.734375 74.472656 208.90625 76.292969 C 209.300781 76.519531 209.796875 76.539062 210.214844 76.363281 C 210.632812 76.191406 210.902344 75.835938 210.902344 75.449219 L 210.902344 60.804688 C 210.902344 60.417969 210.632812 60.070312 210.214844 59.890625 "/></g><g clip-rule="nonzero" clip-path="url(#023eed300d)"><path style=" stroke:none;fill-rule:nonzero;fill:#f5f5ef;fill-opacity:1;" d="M 53.519531 176.050781 L 316.769531 176.050781 L 316.769531 227.800781 L 53.519531 227.800781 Z M 53.519531 176.050781 "/></g><g style="fill:#545454;fill-opacity:1;"><g transform="translate(80.15726, 212.29796)"><path style="stroke:none" d="M 12.90625 -4.40625 C 13.65625 -4.40625 14.378906 -4.515625 15.078125 -4.734375 C 15.773438 -4.960938 16.285156 -5.175781 16.609375 -5.375 L 17.109375 -5.71875 L 19.171875 -1.578125 C 19.097656 -1.523438 19 -1.453125 18.875 -1.359375 C 18.757812 -1.273438 18.484375 -1.117188 18.046875 -0.890625 C 17.609375 -0.660156 17.140625 -0.457031 16.640625 -0.28125 C 16.140625 -0.113281 15.484375 0.0351562 14.671875 0.171875 C 13.859375 0.316406 13.019531 0.390625 12.15625 0.390625 C 10.175781 0.390625 8.296875 -0.09375 6.515625 -1.0625 C 4.742188 -2.039062 3.3125 -3.382812 2.21875 -5.09375 C 1.132812 -6.800781 0.59375 -8.648438 0.59375 -10.640625 C 0.59375 -12.140625 0.910156 -13.578125 1.546875 -14.953125 C 2.191406 -16.335938 3.039062 -17.519531 4.09375 -18.5 C 5.15625 -19.476562 6.394531 -20.257812 7.8125 -20.84375 C 9.226562 -21.4375 10.675781 -21.734375 12.15625 -21.734375 C 13.539062 -21.734375 14.8125 -21.566406 15.96875 -21.234375 C 17.132812 -20.910156 17.960938 -20.585938 18.453125 -20.265625 L 19.171875 -19.765625 L 17.109375 -15.625 C 16.984375 -15.726562 16.800781 -15.851562 16.5625 -16 C 16.320312 -16.144531 15.835938 -16.335938 15.109375 -16.578125 C 14.390625 -16.828125 13.65625 -16.953125 12.90625 -16.953125 C 11.738281 -16.953125 10.6875 -16.757812 9.75 -16.375 C 8.820312 -16 8.085938 -15.5 7.546875 -14.875 C 7.003906 -14.257812 6.585938 -13.59375 6.296875 -12.875 C 6.015625 -12.15625 5.875 -11.425781 5.875 -10.6875 C 5.875 -9.0625 6.476562 -7.609375 7.6875 -6.328125 C 8.90625 -5.046875 10.644531 -4.40625 12.90625 -4.40625 Z M 12.90625 -4.40625 "/></g></g><g style="fill:#545454;fill-opacity:1;"><g transform="translate(103.305561, 212.29796)"><path style="stroke:none" d="M 6.421875 -8.5625 L 6.421875 0 L 1.546875 0 L 1.546875 -21.34375 L 6.421875 -21.34375 L 6.421875 -12.828125 L 13.296875 -12.828125 L 13.296875 -21.34375 L 18.171875 -21.34375 L 18.171875 0 L 13.296875 0 L 13.296875 -8.5625 Z M 6.421875 -8.5625 "/></g></g><g style="fill:#545454;fill-opacity:1;"><g transform="translate(126.686643, 212.29796)"><path style="stroke:none" d="M 13.765625 -21.34375 L 13.765625 -17.078125 L 6.421875 -17.078125 L 6.421875 -12.828125 L 13.453125 -12.828125 L 13.453125 -8.5625 L 6.421875 -8.5625 L 6.421875 -4.265625 L 13.765625 -4.265625 L 13.765625 0 L 1.546875 0 L 1.546875 -21.34375 Z M 13.765625 -21.34375 "/></g></g><g style="fill:#545454;fill-opacity:1;"><g transform="translate(145.360614, 212.29796)"><path style="stroke:none" d="M 9.421875 -21.734375 C 10.578125 -21.734375 11.707031 -21.5625 12.8125 -21.21875 C 13.914062 -20.882812 14.734375 -20.554688 15.265625 -20.234375 L 16.046875 -19.71875 L 14.078125 -15.828125 C 13.921875 -15.929688 13.703125 -16.066406 13.421875 -16.234375 C 13.148438 -16.398438 12.632812 -16.617188 11.875 -16.890625 C 11.113281 -17.171875 10.40625 -17.3125 9.75 -17.3125 C 8.9375 -17.3125 8.3125 -17.140625 7.875 -16.796875 C 7.4375 -16.453125 7.21875 -15.984375 7.21875 -15.390625 C 7.21875 -15.097656 7.320312 -14.828125 7.53125 -14.578125 C 7.738281 -14.328125 8.09375 -14.054688 8.59375 -13.765625 C 9.09375 -13.484375 9.53125 -13.253906 9.90625 -13.078125 C 10.289062 -12.910156 10.878906 -12.65625 11.671875 -12.3125 C 13.046875 -11.726562 14.21875 -10.929688 15.1875 -9.921875 C 16.164062 -8.910156 16.65625 -7.769531 16.65625 -6.5 C 16.65625 -5.269531 16.4375 -4.195312 16 -3.28125 C 15.5625 -2.375 14.957031 -1.660156 14.1875 -1.140625 C 13.425781 -0.617188 12.578125 -0.234375 11.640625 0.015625 C 10.710938 0.265625 9.703125 0.390625 8.609375 0.390625 C 7.679688 0.390625 6.769531 0.289062 5.875 0.09375 C 4.976562 -0.09375 4.226562 -0.328125 3.625 -0.609375 C 3.019531 -0.890625 2.472656 -1.164062 1.984375 -1.4375 C 1.503906 -1.71875 1.15625 -1.953125 0.9375 -2.140625 L 0.59375 -2.4375 L 3.03125 -6.515625 C 3.238281 -6.347656 3.519531 -6.128906 3.875 -5.859375 C 4.238281 -5.585938 4.878906 -5.226562 5.796875 -4.78125 C 6.722656 -4.332031 7.539062 -4.109375 8.25 -4.109375 C 10.300781 -4.109375 11.328125 -4.804688 11.328125 -6.203125 C 11.328125 -6.503906 11.253906 -6.78125 11.109375 -7.03125 C 10.960938 -7.28125 10.703125 -7.53125 10.328125 -7.78125 C 9.960938 -8.03125 9.632812 -8.226562 9.34375 -8.375 C 9.0625 -8.519531 8.597656 -8.742188 7.953125 -9.046875 C 7.304688 -9.347656 6.828125 -9.578125 6.515625 -9.734375 C 5.222656 -10.367188 4.222656 -11.164062 3.515625 -12.125 C 2.804688 -13.082031 2.453125 -14.113281 2.453125 -15.21875 C 2.453125 -17.132812 3.160156 -18.695312 4.578125 -19.90625 C 5.992188 -21.125 7.609375 -21.734375 9.421875 -21.734375 Z M 9.421875 -21.734375 "/></g></g><g style="fill:#545454;fill-opacity:1;"><g transform="translate(166.414008, 212.29796)"><path style="stroke:none" d="M 9.421875 -21.734375 C 10.578125 -21.734375 11.707031 -21.5625 12.8125 -21.21875 C 13.914062 -20.882812 14.734375 -20.554688 15.265625 -20.234375 L 16.046875 -19.71875 L 14.078125 -15.828125 C 13.921875 -15.929688 13.703125 -16.066406 13.421875 -16.234375 C 13.148438 -16.398438 12.632812 -16.617188 11.875 -16.890625 C 11.113281 -17.171875 10.40625 -17.3125 9.75 -17.3125 C 8.9375 -17.3125 8.3125 -17.140625 7.875 -16.796875 C 7.4375 -16.453125 7.21875 -15.984375 7.21875 -15.390625 C 7.21875 -15.097656 7.320312 -14.828125 7.53125 -14.578125 C 7.738281 -14.328125 8.09375 -14.054688 8.59375 -13.765625 C 9.09375 -13.484375 9.53125 -13.253906 9.90625 -13.078125 C 10.289062 -12.910156 10.878906 -12.65625 11.671875 -12.3125 C 13.046875 -11.726562 14.21875 -10.929688 15.1875 -9.921875 C 16.164062 -8.910156 16.65625 -7.769531 16.65625 -6.5 C 16.65625 -5.269531 16.4375 -4.195312 16 -3.28125 C 15.5625 -2.375 14.957031 -1.660156 14.1875 -1.140625 C 13.425781 -0.617188 12.578125 -0.234375 11.640625 0.015625 C 10.710938 0.265625 9.703125 0.390625 8.609375 0.390625 C 7.679688 0.390625 6.769531 0.289062 5.875 0.09375 C 4.976562 -0.09375 4.226562 -0.328125 3.625 -0.609375 C 3.019531 -0.890625 2.472656 -1.164062 1.984375 -1.4375 C 1.503906 -1.71875 1.15625 -1.953125 0.9375 -2.140625 L 0.59375 -2.4375 L 3.03125 -6.515625 C 3.238281 -6.347656 3.519531 -6.128906 3.875 -5.859375 C 4.238281 -5.585938 4.878906 -5.226562 5.796875 -4.78125 C 6.722656 -4.332031 7.539062 -4.109375 8.25 -4.109375 C 10.300781 -4.109375 11.328125 -4.804688 11.328125 -6.203125 C 11.328125 -6.503906 11.253906 -6.78125 11.109375 -7.03125 C 10.960938 -7.28125 10.703125 -7.53125 10.328125 -7.78125 C 9.960938 -8.03125 9.632812 -8.226562 9.34375 -8.375 C 9.0625 -8.519531 8.597656 -8.742188 7.953125 -9.046875 C 7.304688 -9.347656 6.828125 -9.578125 6.515625 -9.734375 C 5.222656 -10.367188 4.222656 -11.164062 3.515625 -12.125 C 2.804688 -13.082031 2.453125 -14.113281 2.453125 -15.21875 C 2.453125 -17.132812 3.160156 -18.695312 4.578125 -19.90625 C 5.992188 -21.125 7.609375 -21.734375 9.421875 -21.734375 Z M 9.421875 -21.734375 "/></g></g><g style="fill:#545454;fill-opacity:1;"><g transform="translate(187.4674, 212.29796)"><path style="stroke:none" d=""/></g></g><g style="fill:#545454;fill-opacity:1;"><g transform="translate(198.20132, 212.29796)"><path style="stroke:none" d="M 20.859375 -11.953125 L 20.859375 -7.328125 C 20.304688 -4.785156 19.097656 -2.863281 17.234375 -1.5625 C 15.367188 -0.257812 13.289062 0.390625 11 0.390625 C 8.113281 0.390625 5.65625 -0.6875 3.625 -2.84375 C 1.601562 -5 0.59375 -7.601562 0.59375 -10.65625 C 0.59375 -13.757812 1.582031 -16.378906 3.5625 -18.515625 C 5.550781 -20.660156 8.03125 -21.734375 11 -21.734375 C 14.46875 -21.734375 17.207031 -20.519531 19.21875 -18.09375 L 16.046875 -14.59375 C 14.898438 -16.425781 13.3125 -17.34375 11.28125 -17.34375 C 9.78125 -17.34375 8.5 -16.6875 7.4375 -15.375 C 6.375 -14.070312 5.84375 -12.5 5.84375 -10.65625 C 5.84375 -8.84375 6.375 -7.296875 7.4375 -6.015625 C 8.5 -4.734375 9.78125 -4.09375 11.28125 -4.09375 C 12.519531 -4.09375 13.597656 -4.46875 14.515625 -5.21875 C 15.441406 -5.96875 15.90625 -6.960938 15.90625 -8.203125 L 11 -8.203125 L 11 -11.953125 Z M 20.859375 -11.953125 "/></g></g><g style="fill:#545454;fill-opacity:1;"><g transform="translate(223.315259, 212.29796)"><path style="stroke:none" d="M 12.390625 -21.34375 L 21.015625 0 L 15.78125 0 L 14.203125 -4.265625 L 6.078125 -4.265625 L 4.5 0 L -0.71875 0 L 7.890625 -21.34375 Z M 12.546875 -8.53125 L 10.171875 -14.75 L 10.109375 -14.75 L 7.734375 -8.53125 Z M 12.546875 -8.53125 "/></g></g><g style="fill:#545454;fill-opacity:1;"><g transform="translate(247.265349, 212.29796)"><path style="stroke:none" d="M 19.203125 0 L 18.1875 -12.65625 L 18.0625 -12.65625 L 13.6875 -0.125 L 10.796875 -0.125 L 6.421875 -12.65625 L 6.28125 -12.65625 L 5.28125 0 L 0.40625 0 L 2.328125 -21.34375 L 7.5 -21.34375 L 12.234375 -9.03125 L 16.96875 -21.34375 L 22.15625 -21.34375 L 24.0625 0 Z M 19.203125 0 "/></g></g><g style="fill:#545454;fill-opacity:1;"><g transform="translate(275.405261, 212.29796)"><path style="stroke:none" d="M 13.765625 -21.34375 L 13.765625 -17.078125 L 6.421875 -17.078125 L 6.421875 -12.828125 L 13.453125 -12.828125 L 13.453125 -8.5625 L 6.421875 -8.5625 L 6.421875 -4.265625 L 13.765625 -4.265625 L 13.765625 0 L 1.546875 0 L 1.546875 -21.34375 Z M 13.765625 -21.34375 "/></g></g></g></svg>